<svg xmlns="http://www.w3.org/2000/svg">

<symbol viewBox="0 0 300 117" overflow="visible" id="logo">
 <g  transform="scale(0.6493506493506493)" opacity="1">
          <g
            transform="translate(-20.848425944496988, -8.742461972922191) scale(2.2026863121497073)" stroke="#fff"
            stroke-width="1.9565420750485685px" light-content="false" non-strokable="false" fill="#fff">
            <path
              d="M38.182 57.753L20.18 47.91v-5.455l18.002-9.803v6.422l-12.557 6.039 12.557 6.266zm1.666 4.327l6.503-34.162h3.785L43.56 62.08zm11.952-4.3V51.4l12.572-6.219L51.8 39.028v-6.332L69.82 42.5v5.41z">
            </path>
            <path
              d="M44.999 86.031L9.465 65.517V24.484L44.999 3.969l35.536 20.516v41.029L44.999 86.031zM13.07 63.434l31.929 18.434L76.93 63.434V26.566L44.999 8.131 13.07 26.565v36.869z">
            </path>
          </g>
          <g transform="translate(336.5311619640885, 163.5452653984662) scale(1)"
            light-content="false" fill="#ffffff">
            <path
              d="M-36.79 -128.57L-29.62 -142.37C-35.12 -147.59 -41.79 -151.65 -49.61 -154.54C-57.44 -157.44 -65.99 -158.89 -75.26 -158.89C-83.45 -158.89 -90.73 -157.62 -97.11 -155.09C-103.48 -152.55 -108.86 -149.18 -113.24 -144.98C-117.63 -140.78 -120.96 -135.96 -123.24 -130.52C-125.53 -125.09 -126.67 -119.51 -126.67 -113.79C-126.67 -106.62 -125.63 -100.58 -123.57 -95.69C-121.5 -90.8 -118.77 -86.73 -115.36 -83.47C-111.96 -80.21 -108.08 -77.56 -103.74 -75.53C-99.39 -73.5 -94.97 -71.77 -90.48 -70.32C-85.98 -68.87 -81.56 -67.53 -77.22 -66.29C-72.87 -65.06 -68.99 -63.56 -65.59 -61.78C-62.18 -60.01 -59.45 -57.82 -57.38 -55.21C-55.32 -52.6 -54.29 -49.23 -54.29 -45.1C-54.29 -37.71 -56.57 -32.04 -61.13 -28.09C-65.7 -24.15 -72.15 -22.17 -80.48 -22.17C-85.91 -22.17 -90.57 -22.91 -94.44 -24.4C-98.32 -25.88 -101.69 -27.53 -104.55 -29.34C-107.41 -31.15 -109.89 -32.8 -111.99 -34.29C-114.1 -35.77 -116.05 -36.52 -117.86 -36.52C-119.24 -36.52 -120.49 -36.17 -121.61 -35.48C-122.74 -34.8 -123.7 -33.94 -124.49 -32.93L-132.97 -18.91C-129.93 -15.79 -126.47 -12.97 -122.59 -10.43C-118.71 -7.9 -114.55 -5.72 -110.09 -3.91C-105.64 -2.1 -100.98 -0.71 -96.13 0.27C-91.27 1.25 -86.35 1.74 -81.35 1.74C-72.65 1.74 -64.94 0.42 -58.2 -2.23C-51.46 -4.87 -45.75 -8.5 -41.08 -13.1C-36.41 -17.7 -32.86 -23.09 -30.43 -29.29C-28 -35.48 -26.79 -42.13 -26.79 -49.23C-26.79 -55.75 -27.82 -61.3 -29.89 -65.86C-31.95 -70.42 -34.69 -74.28 -38.09 -77.43C-41.5 -80.59 -45.37 -83.19 -49.72 -85.26C-54.07 -87.32 -58.51 -89.14 -63.03 -90.69C-67.56 -92.25 -72 -93.72 -76.35 -95.1C-80.7 -96.47 -84.57 -98.03 -87.98 -99.77C-91.38 -101.51 -94.12 -103.61 -96.18 -106.07C-98.25 -108.54 -99.28 -111.61 -99.28 -115.31C-99.28 -118.21 -98.77 -120.87 -97.76 -123.3C-96.74 -125.72 -95.2 -127.81 -93.14 -129.55C-91.07 -131.29 -88.54 -132.64 -85.53 -133.62C-82.52 -134.6 -78.99 -135.09 -74.93 -135.09C-70.44 -135.09 -66.55 -134.53 -63.25 -133.4C-59.96 -132.28 -57.08 -131.03 -54.61 -129.66C-52.15 -128.28 -50.01 -127.03 -48.2 -125.91C-46.39 -124.78 -44.76 -124.22 -43.31 -124.22C-41.86 -124.22 -40.61 -124.55 -39.56 -125.2C-38.51 -125.85 -37.59 -126.97 -36.79 -128.57Z M67.76 -21.52C60.3 -21.52 53.42 -22.8 47.11 -25.38C40.81 -27.95 35.38 -31.66 30.81 -36.52C26.25 -41.37 22.7 -47.33 20.16 -54.39C17.62 -61.46 16.36 -69.52 16.36 -78.58C16.36 -86.98 17.55 -94.59 19.94 -101.4C22.33 -108.21 25.74 -114.04 30.16 -118.9C34.58 -123.75 39.92 -127.48 46.19 -130.09C52.46 -132.7 59.47 -134 67.22 -134C72 -134 76.22 -133.68 79.88 -133.02C83.54 -132.37 86.84 -131.54 89.77 -130.52C92.7 -129.51 95.38 -128.32 97.81 -126.94C100.24 -125.56 102.61 -124.19 104.93 -122.81C106.74 -121.65 108.52 -121.07 110.26 -121.07C113.01 -121.07 115.22 -122.41 116.89 -125.09L125.36 -138.35C118.84 -144.44 110.89 -149.38 101.51 -153.18C92.12 -156.99 81.02 -158.89 68.2 -158.89C55.66 -158.89 44.36 -156.93 34.29 -153.02C24.22 -149.11 15.65 -143.6 8.59 -136.5C1.52 -129.4 -3.93 -120.92 -7.77 -111.07C-11.61 -101.22 -13.53 -90.39 -13.53 -78.58C-13.53 -66.91 -11.56 -56.15 -7.61 -46.3C-3.66 -36.44 1.83 -27.97 8.86 -20.87C15.89 -13.77 24.22 -8.22 33.85 -4.24C43.49 -0.25 54.03 1.74 65.48 1.74C71.93 1.74 77.94 1.39 83.52 0.71C89.1 0.02 94.33 -1.01 99.22 -2.39C104.12 -3.77 108.72 -5.52 113.03 -7.66C117.34 -9.8 121.49 -12.32 125.47 -15.22L125.47 -78.79L73.2 -78.79L73.2 -62.27C73.2 -60.75 73.74 -59.47 74.83 -58.42C75.91 -57.37 77.4 -56.84 79.28 -56.84L98.95 -56.84L98.95 -28.26C94.53 -26.16 89.88 -24.51 84.99 -23.31C80.1 -22.12 74.36 -21.52 67.76 -21.52Z">
            </path>
          </g>
        </g>
</symbol>

<symbol viewBox="0 0 64 64" id="icon-inst">
  <g data-name="Layer 6" id="Layer_6">
    <path fill="none" stroke-linecap="round" stroke-linejoin="round" stroke-width="3px" d="M50.39,17.46V46.54a4.64,4.64,0,0,1-4.62,4.63H17.18a4.64,4.64,0,0,1-4.62-4.62V17.46a4.64,4.64,0,0,1,4.62-4.63H45.77"/>
    <circle cx="50.44" cy="14.13" r="1"/>
    <circle cx="39.03" cy="25" r="1"/>
    <path fill="none" stroke-linecap="round" stroke-linejoin="round" stroke-width="3px" d="M23.77,20.32a3.75,3.75,0,0,0-3.47,3.74V39.94a3.77,3.77,0,0,0,3.76,3.76h8.59"/>
    <path fill="none" stroke-linecap="round" stroke-linejoin="round" stroke-width="3px" d="M32.65,43.7h7.29a3.77,3.77,0,0,0,3.76-3.76V24.06a3.77,3.77,0,0,0-3.76-3.76H24.06a1.37,1.37,0,0,0-.29,0"/>
    <path fill="none" stroke-linecap="round" stroke-linejoin="round" stroke-width="3px" d="M34,26.74A5.64,5.64,0,1,0,37.64,32"/>
  </g>
</symbol>

<symbol viewBox="0 0 64 64" id="icon-wta">
  <g>
    <path fill="none" stroke-linecap="round" stroke-linejoin="round" stroke-width="3px" d="M50.39,17.46V46.54a4.64,4.64,0,0,1-4.62,4.63H17.18a4.64,4.64,0,0,1-4.62-4.62V17.46a4.64,4.64,0,0,1,4.62-4.63H45.77"/>
    <circle cx="50.44" cy="14.13" r="1"/>
    <path fill="none" stroke-linecap="round" stroke-linejoin="round" stroke-width="3px" d="M30.3,28.31l-1.95-1.95-.87.87a3.07,3.07,0,0,0,0,4.34l4.78,4.78a3.07,3.07,0,0,0,4.34,0l.87-.87L36,34"/>
    <path fill="none" stroke-linecap="round" stroke-linejoin="round" stroke-width="3px" d="M43.4,32a11.4,11.4,0,0,1-17.09,9.88l-2.59.69-3.12.83.83-3.12.69-2.59A11.4,11.4,0,1,1,43.4,32Z"/>
  </g>
</symbol>

<symbol viewBox="0 0 64 64" id="icon-fb">
  <g>
    <path fill="none" stroke-linecap="round" stroke-linejoin="round" stroke-width="3px" d="M30.54,51H17.22a4.64,4.64,0,0,1-4.63-4.62V17.28a4.64,4.64,0,0,1,4.63-4.63H45.8"/>
    <path fill="none" stroke-linecap="round" stroke-linejoin="round" stroke-width="3px" d="M50.43,17.28V46.36A4.64,4.64,0,0,1,45.8,51h-9"/>
    <circle cx="50.48" cy="13.95" r="1"/>
    <path fill="none" stroke-linecap="round" stroke-linejoin="round" stroke-width="3px" d="M30.54,51V38.51h-4.4V32.57h4.4V26.84a6,6,0,0,1,6-6h6.23v5.65H38.21A1.47,1.47,0,0,0,36.74,28v4.54h6v6h-6V51"/>
  </g>
</symbol>
<symbol viewBox="0 0 24 24" id ="icon-link">
  <path d="M943.5,2643.49a6.208,6.208,0,0,0-8.743,0l-4.721,4.73a7.1,7.1,0,0,1,4.908.37l2.454-2.45a2.447,2.447,0,0,1,3.46,3.46l-3.085,3.09-2.028,2.02a2.438,2.438,0,0,1-3.46,0l-2.641,2.65a6.064,6.064,0,0,0,2.079,1.36,6.237,6.237,0,0,0,6.153-.9,4.686,4.686,0,0,0,.511-0.46l3.187-3.19,1.926-1.93A6.18,6.18,0,0,0,943.5,2643.49Zm-12.561,16.03-2.352,2.36a2.447,2.447,0,0,1-3.46-3.46l5.113-5.12a2.457,2.457,0,0,1,3.46,0l2.642-2.64a5.97,5.97,0,0,0-2.079-1.37,6.206,6.206,0,0,0-6.426,1.14,3.111,3.111,0,0,0-.239.23l-5.113,5.11a6.185,6.185,0,0,0,8.744,8.75l4.618-4.67C933.5,2660.39,932.949,2660.33,930.938,2659.52Z" transform="translate(-920.688 -2641.72)"/>
</symbol>

<symbol viewBox ="0 0 25 24" id="icon-view">
  <path d="M985.3,2645.08a1.3,1.3,0,1,0,0,2.59,4.156,4.156,0,0,1,3.748,2.31,1.327,1.327,0,0,0,1.758.6,1.284,1.284,0,0,0,.607-1.73A6.756,6.756,0,0,0,985.3,2645.08Zm14.152,17.8-4.383-4.32a10.838,10.838,0,0,0,2.068-6.36,11.158,11.158,0,1,0-4.346,8.7l4.335,4.27a1.649,1.649,0,0,0,2.326,0A1.6,1.6,0,0,0,999.456,2662.88Zm-22.047-10.68a8.552,8.552,0,0,1,17.1,0,8.4,8.4,0,0,1-3.029,6.42A8.561,8.561,0,0,1,977.409,2652.2Z" transform="translate(-974.781 -2641.19)"/>
</symbol>

</svg>

